<svg xmlns="http://www.w3.org/2000/svg" width="1060.807" height="450.209" viewBox="0 0 1060.807 450.209"><g transform="translate(1.03 0.496)"><path d="M330.865,98.059s-86.93,5.894-103.137,20.627-23.574,13.261-38.309,55.989-53.042,204.8-53.042,226.9-7.367,100.192-7.367,100.192-1.473,16.207,17.68,17.68,129.66,13.261,129.66,13.261,38.309,2.947,69.25,0,79.563-4.42,123.766-11.788S1180.525,380,1185.439,378.005s0-110.506,0-110.506-1.474-10.313-13.261-17.68S492.939,98.059,492.939,98.059s-64.83-10.314-82.51-8.841S330.865,98.059,330.865,98.059Z" transform="translate(-128.983 -85.315)" fill="#00aaeb" stroke="#161516" stroke-miterlimit="10" stroke-width="2"/><path d="M272.95,121.841s-56.667,5.769-64.978,8.938c-7.884,3.005-11.591,2.609-16.6,17.087s-46.777,181.54-50.118,213.282,7.8,30.627,7.8,30.627l123.9,4.456s16.429-3.9,22.553-22.832,66.825-245.58,66.825-245.58,1.671-10.58-10.58-11.136S272.95,121.841,272.95,121.841Z" transform="translate(-121.176 -66.826)" fill="#e0e1e2" stroke="#161516" stroke-miterlimit="10" stroke-width="2"/><circle cx="6.717" cy="6.717" r="6.717" transform="translate(19.45 296.55)" fill="#e6efb5" stroke="#161516" stroke-miterlimit="10" stroke-width="2"/><circle cx="5.847" cy="5.847" r="5.847" transform="translate(32.883 296.55)" fill="#e3e8c4" stroke="#161516" stroke-miterlimit="10" stroke-width="2"/><circle cx="8.873" cy="8.873" r="8.873" transform="translate(147.042 296.55)" fill="#e6efb5" stroke="#161516" stroke-miterlimit="10" stroke-width="2"/><circle cx="7.238" cy="7.238" r="7.238" transform="translate(130.34 298.221)" fill="#e3e8c4" stroke="#161516" stroke-miterlimit="10" stroke-width="2"/><path d="M212.516,161.853,175.3,163.832l7.165-32.873,36.315-5.592Z" transform="translate(-93.117 -59.78)" fill="#dd97ea" stroke="#161516" stroke-linejoin="round" stroke-width="2"/><path d="M370.256,150.7l-56.28-3.161s-8.953-.718-12.015,11.382C297.935,174.837,255.8,325.864,255.8,325.864s-3.162,15.176,15.809,13.28S417.051,327.76,417.051,327.76s8.219,1.9,8.219-12.013-6.955-153.663-6.955-153.663,1.9-8.853-8.221-10.119S370.256,150.7,370.256,150.7Z" transform="translate(-44.071 -46.113)" fill="#e0e1e2" stroke="#161516" stroke-miterlimit="10" stroke-width="2"/><path d="M224.9,103.659c-2.417,1.881-8.353,6.126-10.859,12.252s.556,8.353,2.783,8.63,8.911-.277,14.758-8.074,9.466-13.644,9.466-15.592-4.454-2.229-7.518-1.114S227.32,101.778,224.9,103.659Z" transform="translate(-72.57 -78.584)" fill="#e6efb5" stroke="#161516" stroke-miterlimit="10" stroke-width="2"/><path d="M366.264,150.061,661.7,189.728l5.471,138.046L372.7,355.247Z" transform="translate(30.14 -44.416)" fill="#00aaeb" stroke="#161516" stroke-linejoin="round" stroke-width="2"/><line x2="294.043" y2="47.219" transform="translate(392.541 72.162)" stroke-width="1.5" stroke="#161516" stroke-linecap="round" stroke-linejoin="round" fill="none"/><line x2="294.043" y2="45.072" transform="translate(394.211 78.172)" stroke-width="1.5" stroke="#161516" stroke-linecap="round" stroke-linejoin="round" fill="none"/><path d="M383.5,176.058l6.014,145.165,92.388-6.742-5.617-130.928Z" transform="translate(41.701 -26.982)" fill="#e0e1e2" stroke="#161516" stroke-linejoin="round" stroke-width="2"/><path d="M463.132,182.684l4.313,124.554,54.219-4.322L516.9,186.838Z" transform="translate(95.101 -22.538)" fill="#e0e1e2" stroke="#161516" stroke-linejoin="round" stroke-width="2"/><path d="M503.485,185.669l4.824,114.468,48.224-3.746L552.42,189.622Z" transform="translate(122.162 -20.537)" fill="#e0e1e2" stroke="#161516" stroke-linejoin="round" stroke-width="2"/><path d="M539.96,137.984s21.616,10.3,24.944,37.776c8.958,73.963,11.115,228.948,11.115,228.948s.563,3.517-3.368,8.336" transform="translate(146.623 -52.515)" fill="#00aaeb" stroke="#161516" stroke-linecap="round" stroke-linejoin="round" stroke-width="2"/><path d="M556.745,175.854l139.52,18.067L699.6,297.6l-134.677,11.59" transform="translate(157.879 -27.119)" fill="#00aaeb" stroke="#161516" stroke-linejoin="round" stroke-width="2"/><path d="M566.162,190.813l4.019,97.948,56.145-4.216-3.919-89.268Z" transform="translate(164.194 -17.087)" fill="#e0e1e2" stroke="#161516" stroke-linejoin="round" stroke-width="1.7"/><path d="M609.145,194.333l3.416,86.721,43.73-3.283-3.634-80Z" transform="translate(193.019 -14.727)" fill="#e0e1e2" stroke="#161516" stroke-linejoin="round" stroke-width="1.7"/><path d="M346.591,94.76s13.781,11.46,21.125,33.5,10.919,32.7,11.741,58.891" transform="translate(16.947 -81.502)" fill="#00aaeb" stroke="#161516" stroke-miterlimit="10" stroke-width="1"/><path d="M530.965,135.7s9.259,11.531,12.753,22.886a191.2,191.2,0,0,1,7.162,41" transform="translate(140.591 -54.045)" fill="#00aaeb" stroke="#161516" stroke-linecap="round" stroke-linejoin="round" stroke-width="1.5"/><path d="M538.489,138.98s7.346,1.338,11.713,10.948,12.246,25.594,13.1,35.465,1.047,22.744.872,33.75,5.067,175.9,5.067,175.9,0,11.09-1.4,17.338" transform="translate(145.637 -51.847)" fill="#00aaeb" stroke="#161516" stroke-linecap="round" stroke-linejoin="round" stroke-width="0.5"/><path d="M537.341,138.98s6.2,1.4,10.567,11.006,11.968,25.557,12.827,35.407,1.047,22.744.872,33.75,5.067,175.9,5.067,175.9,0,11.09-1.4,17.338" transform="translate(144.867 -51.847)" fill="#00aaeb" stroke="#161516" stroke-linecap="round" stroke-linejoin="round" stroke-width="0.5"/><path d="M536.243,138.98s5.269,1.544,9.636,11.151,11.465,25.4,12.251,35.262c.954,12,1.047,22.744.872,33.75s5.067,175.9,5.067,175.9-.119,12.561-1.517,18.809" transform="translate(144.13 -51.847)" fill="#00aaeb" stroke="#161516" stroke-linecap="round" stroke-linejoin="round" stroke-width="0.5"/><path d="M535.145,138.98s4.4.956,8.771,10.565,11.023,25.542,11.609,35.848,1.047,22.744.872,33.75,5.067,175.9,5.067,175.9-.185,13.387-1.582,19.633" transform="translate(143.394 -51.847)" fill="#00aaeb" stroke="#161516" stroke-linecap="round" stroke-linejoin="round" stroke-width="0.5"/><path d="M534.329,138.98s3.43,1.427,7.8,11.036,9.813,27.5,10.605,35.377,1.047,22.744.872,33.75,5.067,175.9,5.067,175.9-.237,14.033-1.636,20.281" transform="translate(142.847 -51.847)" fill="#00aaeb" stroke="#161516" stroke-linecap="round" stroke-linejoin="round" stroke-width="0.5"/><path d="M635.191,159.563s8.863,2.678,12.145,9.9,9.852,26.663,9.852,26.663.789,3.283.657,11.557,3.809,146.053,3.809,146.053,0,8.338-1.051,13.036" transform="translate(210.486 -38.044)" fill="#00aaeb" stroke="#161516" stroke-linecap="round" stroke-linejoin="round" stroke-width="0.5"/><path d="M637.366,158.544s8.57,4.38,11.853,11.6,9.852,26.663,9.852,26.663.789,3.283.657,11.557,3.809,146.053,3.809,146.053,0,8.338-1.051,13.036" transform="translate(211.945 -38.727)" fill="#00aaeb" stroke="#161516" stroke-linecap="round" stroke-linejoin="round" stroke-width="1.5"/><path d="M634.327,159.563s8,2.721,11.287,9.945,9.641,26.62,9.641,26.62.789,3.283.657,11.557,3.809,146.053,3.809,146.053,0,8.338-1.051,13.036" transform="translate(209.907 -38.044)" fill="#00aaeb" stroke="#161516" stroke-linecap="round" stroke-linejoin="round" stroke-width="0.5"/><path d="M633.5,159.563s7.3,2.832,10.585,10.055,9.21,26.509,9.21,26.509.787,3.283.657,11.557,3.809,146.053,3.809,146.053-.09,9.446-1.141,14.142" transform="translate(209.353 -38.044)" fill="#00aaeb" stroke="#161516" stroke-linecap="round" stroke-linejoin="round" stroke-width="0.5"/><path d="M632.676,159.563a19.14,19.14,0,0,1,9.935,9.613c3.283,7.225,8.727,26.952,8.727,26.952s.788,3.283.656,11.557S655.8,353.738,655.8,353.738s-.139,10.065-1.19,14.762" transform="translate(208.8 -38.044)" fill="#00aaeb" stroke="#161516" stroke-linecap="round" stroke-linejoin="round" stroke-width="0.5"/><path d="M632.063,159.563a21.029,21.029,0,0,1,9.2,9.969c3.284,7.224,7.972,26.6,7.972,26.6s.788,3.283.658,11.557S653.7,353.738,653.7,353.738s-.179,10.552-1.23,15.249" transform="translate(208.388 -38.044)" fill="#00aaeb" stroke="#161516" stroke-linecap="round" stroke-linejoin="round" stroke-width="0.5"/><path d="M629.052,157.194s7.608,6.7,10.891,13.926,7.972,26.6,7.972,26.6.788,3.283.658,11.557,3.809,146.053,3.809,146.053-.179,10.552-1.23,15.249" transform="translate(206.369 -39.632)" fill="#00aaeb" stroke="#161516" stroke-linecap="round" stroke-linejoin="round" stroke-width="1.5"/><path d="M681.515,169.732a14.081,14.081,0,0,1,8.786,7.707c2.867,6.31,6.589,17.471,6.739,21.066a85.053,85.053,0,0,1,.139,9.422c-.115,7.227,3.326,127.558,3.326,127.558a68.918,68.918,0,0,1-.917,11.384" transform="translate(241.552 -31.224)" fill="#00aaeb" stroke="#161516" stroke-linecap="round" stroke-linejoin="round" stroke-width="0.5"/><path d="M682.794,168.311s4.823.879,7.691,7.187,8.6,23.287,8.6,23.287.688,2.868.573,10.1,3.326,127.558,3.326,127.558a68.913,68.913,0,0,1-.917,11.384" transform="translate(242.409 -32.177)" fill="#00aaeb" stroke="#161516" stroke-linecap="round" stroke-linejoin="round" stroke-width="1.2"/><path d="M680.761,169.732s5.166,1.437,8.032,7.747,6.424,18.2,6.559,21.026a82.433,82.433,0,0,1,.139,9.422c-.115,7.227,3.326,127.558,3.326,127.558a68.922,68.922,0,0,1-.917,11.384" transform="translate(241.046 -31.224)" fill="#00aaeb" stroke="#161516" stroke-linecap="round" stroke-linejoin="round" stroke-width="0.5"/><path d="M680.04,169.732s4.554,1.532,7.421,7.842,6.036,17.68,6.181,20.931a84.432,84.432,0,0,1,.139,9.422c-.115,7.227,3.326,127.558,3.326,127.558s-.079,8.25-1,12.351" transform="translate(240.562 -31.224)" fill="#00aaeb" stroke="#161516" stroke-linecap="round" stroke-linejoin="round" stroke-width="0.5"/><path d="M679.319,169.732s3.986,1.146,6.853,7.456,5.6,17.122,5.76,21.317a87.749,87.749,0,0,1,.137,9.422c-.114,7.227,3.328,127.558,3.328,127.558s-.122,8.791-1.039,12.892" transform="translate(240.079 -31.224)" fill="#00aaeb" stroke="#161516" stroke-linecap="round" stroke-linejoin="round" stroke-width="0.5"/><path d="M678.619,169.916s3.62,1.149,6.489,7.458,4.664,20.335,4.664,20.335.688,2.868.573,10.1,3.328,127.558,3.328,127.558-.157,9.215-1.074,13.318" transform="translate(239.61 -31.101)" fill="#00aaeb" stroke="#161516" stroke-linecap="round" stroke-linejoin="round" stroke-width="0.5"/><path d="M675.887,167.5s4.217,2.289,7.083,8.6,6.963,23.228,6.963,23.228.688,2.868.573,10.1,3.328,127.558,3.328,127.558-.157,9.215-1.074,13.318" transform="translate(237.777 -32.72)" fill="#00aaeb" stroke="#161516" stroke-linecap="round" stroke-linejoin="round" stroke-width="1.2"/><path d="M725.31,178.559s3.969.723,6.328,5.916,7.078,19.159,7.078,19.159a38.329,38.329,0,0,1,.473,8.306c-.1,5.946,2.736,104.951,2.736,104.951a56.689,56.689,0,0,1-.755,9.367" transform="translate(270.921 -25.305)" fill="#00aaeb" stroke="#161516" stroke-linecap="round" stroke-linejoin="round" stroke-width="1"/><path d="M725.31,179.779a16.01,16.01,0,0,1,5.932,7.177c2.361,5.191,5.67,15.859,5.67,15.859a38.291,38.291,0,0,1,.471,8.306c-.094,5.946,2.736,104.951,2.736,104.951a56.689,56.689,0,0,1-.755,9.367" transform="translate(270.921 -24.487)" fill="#00aaeb" stroke="#161516" stroke-linecap="round" stroke-linejoin="round" stroke-width="0.5"/><path d="M724.717,179.779s3.071,2.065,5.429,7.255c2.391,5.259,3.286,7.73,5.358,15.781a38.332,38.332,0,0,1,.473,8.306c-.1,5.946,2.736,104.951,2.736,104.951a67.465,67.465,0,0,1-.819,10.162" transform="translate(270.523 -24.487)" fill="#00aaeb" stroke="#161516" stroke-linecap="round" stroke-linejoin="round" stroke-width="0.5"/><path d="M724.124,179.779s2.69,1.709,4.962,6.938c2.561,5.9,5.2,16.741,5.012,16.1a38.286,38.286,0,0,1,.471,8.306c-.094,5.946,2.738,104.951,2.738,104.951s-.1,7.232-.855,10.607" transform="translate(270.126 -24.487)" fill="#00aaeb" stroke="#161516" stroke-linecap="round" stroke-linejoin="round" stroke-width="0.5"/><path d="M723.684,179.779s2.075,2,4.434,7.194a56.551,56.551,0,0,1,4.469,15.842,38.343,38.343,0,0,1,.473,8.306c-.1,5.946,2.737,104.951,2.737,104.951s-.129,7.581-.884,10.958" transform="translate(269.831 -24.487)" fill="#00aaeb" stroke="#161516" stroke-linecap="round" stroke-linejoin="round" stroke-width="0.5"/><path d="M722.063,178.559s1.853.772,4.212,5.962S732,203.633,732,203.633a38.341,38.341,0,0,1,.473,8.306c-.1,5.946,2.736,104.951,2.736,104.951s-.129,7.581-.884,10.958" transform="translate(268.744 -25.305)" fill="#00aaeb" stroke="#161516" stroke-linecap="round" stroke-linejoin="round" stroke-width="1"/><path d="M547.4,257.244l.71,70.43s.17,5.418-2.3,9.028" transform="translate(150.546 27.462)" fill="#00aaeb" stroke="#161516" stroke-linecap="round" stroke-linejoin="round" stroke-width="1.5"/><path d="M654.624,197.754l2.838,75.345,21.685-1.4-2.726-72.252Z" transform="translate(223.518 -12.433)" fill="#e0e1e2" stroke="#161516" stroke-linejoin="round" stroke-width="1.5"/><path d="M671.347,199.041l3.242,71.189,18.3-1.5-2.851-68.122Z" transform="translate(234.733 -11.569)" fill="#e0e1e2" stroke="#161516" stroke-linejoin="round" stroke-width="1.5"/><path d="M695.429,200.942l2.823,65.475,25.043-2.079-2.472-61.232Z" transform="translate(250.883 -10.294)" fill="#e0e1e2" stroke="#161516" stroke-linejoin="round" stroke-width="1.3"/><path d="M696.811,202.572l.713,13.922,20.909,1.106-.677-13.251Z" transform="translate(251.809 -9.202)" fill="#212121" stroke="#161516" stroke-linecap="round" stroke-linejoin="round" stroke-width="0.5"/><path d="M714.641,202.494l2.541,60.412,19.979-1.629-2.4-57.153Z" transform="translate(263.766 -9.254)" fill="#e0e1e2" stroke="#161516" stroke-linejoin="round" stroke-width="1.3"/><line x2="140.513" y2="23.822" transform="translate(711.541 125.594)" fill="none" stroke="#161516" stroke-linejoin="round" stroke-width="2"/><line x2="56.692" y2="9.214" transform="translate(869.628 151.919)" fill="none" stroke="#161516" stroke-linejoin="round" stroke-width="2"/><line x2="59.56" y2="10.46" transform="translate(940.496 163.68)" fill="none" stroke="#161516" stroke-linejoin="round" stroke-width="2"/><line x2="47.266" y2="7.911" transform="translate(1009.237 175.373)" fill="none" stroke="#161516" stroke-linejoin="round" stroke-width="2"/><line x2="59.936" y2="7.79" transform="translate(942.057 178.106)" fill="none" stroke="#161516" stroke-linejoin="round" stroke-width="2"/><line x2="45.905" y2="5.731" transform="translate(1010.11 187.51)" fill="none" stroke="#161516" stroke-linejoin="round" stroke-width="2"/><line x2="56.6" y2="7.375" transform="translate(871.685 168.445)" fill="none" stroke="#161516" stroke-linejoin="round" stroke-width="2"/><path d="M166.2,157.237c6.559-1.313,132.952-11.714,166.958-7.825" transform="translate(-104.029 -45.432)" fill="#00aaeb" stroke="#161516" stroke-linecap="round" stroke-linejoin="round" stroke-width="1"/><line x2="158.503" y2="2.921" transform="translate(26.167 267.069)" stroke-width="1" stroke="#161516" stroke-linecap="round" stroke-linejoin="round" fill="none"/><path d="M467.553,347.286c1.7-1.7,1.873-10.014,1.7-16.143s-.825-17.879-.825-17.879.486-15.493,11.552-20.091,85.474-12.1,85.474-12.1,7.663-1.7,9.706,7.329,2.382,30.236,2.382,30.236v5.69" transform="translate(98.066 43.359)" fill="#00aaeb" stroke="#161516" stroke-linecap="round" stroke-linejoin="round" stroke-width="1"/><path d="M222.311,292.507c7.242.55,12.531,1.726,28.755.488s218.174-20.112,218.174-20.112-.105,97.35,0,101.234.8,7.377-1.1,11.846" transform="translate(-66.397 37.949)" fill="#00aaeb" stroke="#161516" stroke-linecap="round" stroke-linejoin="round" stroke-width="1"/><path d="M235.554,285.248,218.691,373.4s-.854,14.088,1.707,26.469" transform="translate(-68.916 46.242)" fill="#00aaeb" stroke="#161516" stroke-linecap="round" stroke-linejoin="round" stroke-width="1"/><path d="M449.765,266.249v85.694c0,5.4.555,7.381-.713,12.242" transform="translate(85.659 33.501)" fill="#00aaeb" stroke="#161516" stroke-linecap="round" stroke-linejoin="round" stroke-width="1"/><path d="M607.489,252.52s.772,55.67.772,57.322a28.6,28.6,0,0,1-1.432,10.142" transform="translate(191.466 24.294)" fill="#00aaeb" stroke="#161516" stroke-linecap="round" stroke-linejoin="round" stroke-width="1"/><path d="M749.686,258.388l-11.653.972-2.326-55.3,11.861.915Z" transform="translate(277.893 -8.203)" fill="#e0e1e2" stroke="#161516" stroke-linejoin="round" stroke-width="0.8"/><path d="M756.414,256.958l-10.372.718-1.967-52.948,10.178.825Z" transform="translate(283.505 -7.756)" fill="#e0e1e2" stroke="#161516" stroke-linejoin="round" stroke-width="0.8"/><path d="M766.97,255.549l-13,.943-2.234-51.081,13.045.844Z" transform="translate(288.643 -7.298)" fill="#e0e1e2" stroke="#161516" stroke-linejoin="round" stroke-width="0.8"/><line y1="28.245" x2="17.114" transform="translate(816.089 82.851)" stroke-width="3" stroke="#161516" stroke-linecap="round" stroke-linejoin="round" fill="none"/><path d="M622.6,137.843l21.551-2.14Z" transform="translate(202.044 -54.045)" fill="#00aaeb" stroke="#161516" stroke-linecap="round" stroke-linejoin="round" stroke-width="3"/><path d="M587.994,91.874c.272,5.976,6.34,12.89,7.7,15.879s2.717,6.52,2.717,6.52,40.476,42.982,42.92,46.179,4.482,8.826,4.482,8.826l21.551-2.14s-10.005-52.051-10.776-55.581a32.9,32.9,0,0,0-2.219-6.52s-8.557-7.565-8.557-12.454,9.644-5.2,13.719.231" transform="translate(178.835 -85.48)" fill="none" stroke="#161516" stroke-linecap="round" stroke-linejoin="round" stroke-width="3"/><path d="M571.754,106.923s-1.631-1.086,0-4.618,7.334-7.063,11.409-7.606,85.027-7.334,86.656-7.606,10.146-2.173,17.433,9.915" transform="translate(167.458 -86.824)" fill="none" stroke="#161516" stroke-linecap="round" stroke-linejoin="round" stroke-width="1"/><path d="M575.754,108.923s-1.631-1.086,0-4.618,7.334-7.063,11.409-7.606,85.028-7.334,86.656-7.606,10.146-2.173,17.433,9.915" transform="translate(170.141 -85.482)" fill="none" stroke="#161516" stroke-linecap="round" stroke-linejoin="round" stroke-width="1"/><line y1="6.52" x2="80.952" transform="translate(759.858 8.962)" stroke-width="1" stroke="#161516" stroke-linecap="round" stroke-linejoin="round" fill="none"/><path d="M657.364,298.479s2.828-3.333,2.828-6.661-1.415-21.456-1.415-21.456-1.081-4.658,3.244-5.655,37.913-4.99,37.913-4.99a5.264,5.264,0,0,1,4,5.323v19.294s.374,2.569-.758,4.125" transform="translate(225.356 29.121)" fill="#00aaeb" stroke="#161516" stroke-linecap="round" stroke-linejoin="round" stroke-width="0.5"/><ellipse cx="1.497" cy="2.495" rx="1.497" ry="2.495" transform="translate(1026.929 264.387)" stroke-width="0.5" stroke="#161516" stroke-linecap="round" stroke-linejoin="round" fill="#eb9a00"/><path d="M1.547,0C2.4,0,3.093.968,3.093,2.162S2.4,4.325,1.547,4.325,0,3.357,0,2.162.692,0,1.547,0Z" transform="translate(999.052 267.547)" fill="#eb9a00" stroke="#161516" stroke-linecap="round" stroke-width="0.5"/><circle cx="2.114" cy="2.114" r="2.114" transform="translate(948.778 272.537)" fill="#eb9a00" stroke="#161516" stroke-linecap="round" stroke-linejoin="round" stroke-width="0.5"/><ellipse cx="2.329" cy="2.801" rx="2.329" ry="2.801" transform="translate(848.456 282.07)" stroke-width="0.5" stroke="#161516" stroke-linecap="round" stroke-linejoin="round" fill="#eb9a00"/><circle cx="3.451" cy="3.451" r="3.451" transform="translate(735.018 293.827)" fill="#eb9a00" stroke="#161516" stroke-linecap="round" stroke-linejoin="round" stroke-width="0.5"/><circle cx="4.408" cy="4.408" r="4.408" transform="translate(614.428 306.801)" fill="#eb9a00" stroke="#161516" stroke-linecap="round" stroke-linejoin="round" stroke-width="0.5"/><ellipse cx="7.402" cy="4.075" rx="7.402" ry="4.075" transform="translate(341.645 333.913)" stroke-width="0.5" stroke="#161516" stroke-linecap="round" stroke-linejoin="round" fill="#eb9a00"/><ellipse cx="8.982" cy="4.907" rx="8.982" ry="4.907" transform="translate(340.148 346.554)" stroke-width="0.5" stroke="#161516" stroke-linecap="round" stroke-linejoin="round" fill="#80491a"/><ellipse cx="5.489" cy="6.071" rx="5.489" ry="6.071" transform="translate(168.327 358.53)" stroke-width="0.5" stroke="#161516" stroke-linecap="round" stroke-linejoin="round" fill="#00aaeb"/><line y1="5.693" x2="61.304" transform="translate(870.856 264.387)" fill="none" stroke="#161516" stroke-linejoin="round" stroke-width="2"/><line y1="4.97" x2="61.892" transform="translate(941.227 258.564)" fill="none" stroke="#161516" stroke-linejoin="round" stroke-width="1.8"/><line y1="4.206" x2="44.475" transform="translate(1012.155 253.653)" fill="none" stroke="#161516" stroke-linejoin="round" stroke-width="1.6"/><text transform="translate(89.067 95.085)" fill="#6e0e76" font-size="25" font-family="PTSans-Caption, PT Sans Caption"><tspan x="0" y="0">14</tspan></text><path d="M187.521,133.124l-8.4-.539-.552-11.56h0l8.95.789h0Z" transform="translate(771.883 73.754)" fill="#dd97ea" stroke="#161516" stroke-linejoin="round" stroke-width="0.5"/><text transform="translate(951 203.013)" fill="#6e0e76" font-size="7" font-family="PTSans-Caption, PT Sans Caption"><tspan x="0" y="0">14</tspan></text></g></svg>